<?xml version="1.0" standalone="no"?>
<!DOCTYPE svg PUBLIC "-//W3C//DTD SVG 20010904//EN"
 "http://www.w3.org/TR/2001/REC-SVG-20010904/DTD/svg10.dtd">
<svg version="1.0" xmlns="http://www.w3.org/2000/svg"
 width="152.000000pt" height="152.000000pt" viewBox="0 0 152.000000 152.000000"
 preserveAspectRatio="xMidYMid meet">
<metadata>
Created by potrace 1.11, written by Peter Selinger 2001-2013
</metadata>
<g transform="translate(0.000000,152.000000) scale(0.100000,-0.100000)"
fill="#000000" stroke="none">
<path d="M734 1383 c-81 -41 -94 -75 -91 -227 2 -107 5 -126 26 -163 24 -41
84 -93 109 -93 7 0 12 -4 12 -9 0 -5 10 -13 23 -17 12 -3 35 -16 50 -26 28
-20 28 -20 24 -118 -5 -106 -10 -123 -35 -116 -10 3 -60 8 -112 12 -52 3 -98
11 -101 16 -4 6 -4 22 0 37 13 47 5 184 -12 218 -32 62 -32 62 -343 63 l-284
1 0 -40 0 -40 260 0 c143 0 268 -2 279 -6 30 -9 30 -15 22 -260 -1 -23 -15
-44 -59 -86 -103 -100 -387 -386 -407 -410 -12 -13 -38 -46 -60 -72 l-38 -48
93 2 c83 2 98 5 134 29 23 15 59 38 81 51 275 157 365 204 435 225 52 15 288
26 296 13 3 -5 5 -78 5 -164 l0 -155 120 0 119 0 0 40 c0 30 -4 40 -16 40 -14
0 -15 9 -10 68 4 37 8 78 11 92 6 37 18 191 16 218 -3 66 -55 101 -181 122
-36 6 -76 12 -90 14 -14 3 -31 5 -37 5 -10 1 -12 29 -8 115 6 155 -3 173 -120
236 -33 18 -73 45 -90 61 -29 28 -30 32 -33 143 -4 111 -4 114 22 140 33 32
74 34 107 5 23 -20 24 -26 27 -179 l3 -159 320 0 319 -1 0 39 0 40 -276 0
c-153 1 -278 2 -279 3 -2 2 -5 60 -6 130 -4 136 -11 156 -71 201 -34 25 -116
31 -154 10z m333 -879 c48 -10 53 -11 81 -12 29 -2 64 -38 58 -60 -3 -9 -8
-44 -11 -77 -7 -85 -17 -177 -20 -200 -2 -11 -4 -32 -4 -47 -1 -23 -6 -28 -26
-28 -28 0 -28 2 -25 228 l1 92 -53 1 c-29 1 -65 2 -80 2 -27 0 -28 2 -28 59
l0 58 35 -5 c19 -2 52 -7 72 -11z m-443 -83 l48 -49 -33 -18 c-260 -133 -361
-193 -352 -207 4 -6 1 -7 -6 -2 -8 4 -25 -2 -43 -15 -71 -52 -28 -1 124 149
90 88 170 167 178 176 22 23 32 19 84 -34z"/>
</g>
</svg>
